<svg xmlns="http://www.w3.org/2000/svg" viewBox="0 0 24 24" width="256" height="256"><path fill="#ffffff" d="M22 8H5a2 2 0 0 0-2 2v11a2 2 0 0 0 2 2h17a2 2 0 0 0 2-2V10a2 2 0 0 0-2-2zM9 12a2 2 0 1 1-2 2 2 2 0 0 1 2-2zm4 7a1 1 0 0 1-1 1H6a1 1 0 0 1-1-1v-.23a1.74 1.74 0 0 1 1-1.57 7.07 7.07 0 0 1 3-.74 7.07 7.07 0 0 1 3 .74 1.74 1.74 0 0 1 1 1.57zm8.5-1h-6a.5.5 0 1 1 0-1h6a.5.5 0 1 1 0 1zm0-3h-8a.5.5 0 1 1 0-1h8a.5.5 0 1 1 0 1zM1.75 9.61a.5.5 0 0 0-.5 0L1 9.76a2 2 0 0 0-.73 2.73l.8 1.4a.5.5 0 0 0 .43.25h.13a.5.5 0 0 0 .37-.5V10a.5.5 0 0 0-.25-.39zM7.58 7h12.71a.5.5 0 0 0 .43-.75L18.29 2a2 2 0 0 0-2.71-.73l-8.25 4.8a.5.5 0 0 0 .25.93z" /></svg>