<svg id="visual" viewBox="0 0 900 600" width="900" height="600" xmlns="http://www.w3.org/2000/svg" xmlns:xlink="http://www.w3.org/1999/xlink" version="1.1"><g stroke-width="1" stroke-linejoin="bevel"><path d="M428 307L500 366L534 296Z" fill="#863b9a" stroke="#863b9a"></path><path d="M534 296L504 184L428 307Z" fill="#3f377a" stroke="#3f377a"></path><path d="M566 216L504 184L534 296Z" fill="#6d3c91" stroke="#6d3c91"></path><path d="M500 366L594 393L534 296Z" fill="#0a274c" stroke="#0a274c"></path><path d="M534 296L622 278L566 216Z" fill="#6d3c91" stroke="#6d3c91"></path><path d="M338 385L366 395L428 307Z" fill="#553a87" stroke="#553a87"></path><path d="M428 307L366 395L500 366Z" fill="#192e5c" stroke="#192e5c"></path><path d="M500 366L566 514L594 393Z" fill="#03192b" stroke="#03192b"></path><path d="M594 393L622 278L534 296Z" fill="#a039a0" stroke="#a039a0"></path><path d="M504 184L376 208L428 307Z" fill="#2b336c" stroke="#2b336c"></path><path d="M281 330L338 385L428 307Z" fill="#192e5c" stroke="#192e5c"></path><path d="M287 475L435 487L366 395Z" fill="#a039a0" stroke="#a039a0"></path><path d="M366 395L435 487L500 366Z" fill="#0a274c" stroke="#0a274c"></path><path d="M376 208L281 330L428 307Z" fill="#00101c" stroke="#00101c"></path><path d="M338 385L287 475L366 395Z" fill="#03203c" stroke="#03203c"></path><path d="M691 367L696 315L622 278Z" fill="#a039a0" stroke="#a039a0"></path><path d="M704 179L573 92L566 216Z" fill="#00101c" stroke="#00101c"></path><path d="M594 393L691 367L622 278Z" fill="#00101c" stroke="#00101c"></path><path d="M712 475L691 367L594 393Z" fill="#2b336c" stroke="#2b336c"></path><path d="M435 487L566 514L500 366Z" fill="#00101c" stroke="#00101c"></path><path d="M435 487L486 533L566 514Z" fill="#03203c" stroke="#03203c"></path><path d="M504 184L405 98L376 208Z" fill="#192e5c" stroke="#192e5c"></path><path d="M376 208L285 171L281 330Z" fill="#553a87" stroke="#553a87"></path><path d="M535 70L405 98L504 184Z" fill="#6d3c91" stroke="#6d3c91"></path><path d="M704 179L566 216L622 278Z" fill="#553a87" stroke="#553a87"></path><path d="M566 216L573 92L504 184Z" fill="#2b336c" stroke="#2b336c"></path><path d="M405 98L285 171L376 208Z" fill="#3f377a" stroke="#3f377a"></path><path d="M573 92L535 70L504 184Z" fill="#03203c" stroke="#03203c"></path><path d="M281 330L287 475L338 385Z" fill="#03192b" stroke="#03192b"></path><path d="M396 600L508 600L486 533Z" fill="#0a274c" stroke="#0a274c"></path><path d="M696 315L704 179L622 278Z" fill="#a039a0" stroke="#a039a0"></path><path d="M566 514L712 475L594 393Z" fill="#0a274c" stroke="#0a274c"></path><path d="M691 367L763 332L696 315Z" fill="#553a87" stroke="#553a87"></path><path d="M696 315L763 332L704 179Z" fill="#553a87" stroke="#553a87"></path><path d="M833 408L763 332L691 367Z" fill="#192e5c" stroke="#192e5c"></path><path d="M486 533L508 600L566 514Z" fill="#553a87" stroke="#553a87"></path><path d="M566 514L704 600L712 475Z" fill="#2b336c" stroke="#2b336c"></path><path d="M396 600L486 533L435 487Z" fill="#553a87" stroke="#553a87"></path><path d="M304 0L300 90L405 98Z" fill="#00101c" stroke="#00101c"></path><path d="M405 98L300 90L285 171Z" fill="#0a274c" stroke="#0a274c"></path><path d="M508 600L565 600L566 514Z" fill="#192e5c" stroke="#192e5c"></path><path d="M339 600L396 600L435 487Z" fill="#00101c" stroke="#00101c"></path><path d="M165 207L167 321L281 330Z" fill="#863b9a" stroke="#863b9a"></path><path d="M281 330L174 436L287 475Z" fill="#a039a0" stroke="#a039a0"></path><path d="M165 207L281 330L285 171Z" fill="#2b336c" stroke="#2b336c"></path><path d="M580 0L514 0L535 70Z" fill="#a039a0" stroke="#a039a0"></path><path d="M535 70L423 0L405 98Z" fill="#03192b" stroke="#03192b"></path><path d="M580 0L535 70L573 92Z" fill="#03192b" stroke="#03192b"></path><path d="M514 0L423 0L535 70Z" fill="#3f377a" stroke="#3f377a"></path><path d="M189 600L339 600L287 475Z" fill="#03203c" stroke="#03203c"></path><path d="M287 475L339 600L435 487Z" fill="#0a274c" stroke="#0a274c"></path><path d="M786 173L706 78L704 179Z" fill="#553a87" stroke="#553a87"></path><path d="M704 179L706 78L573 92Z" fill="#6d3c91" stroke="#6d3c91"></path><path d="M685 0L580 0L573 92Z" fill="#00101c" stroke="#00101c"></path><path d="M167 321L174 436L281 330Z" fill="#0a274c" stroke="#0a274c"></path><path d="M763 332L786 173L704 179Z" fill="#a039a0" stroke="#a039a0"></path><path d="M172 135L165 207L285 171Z" fill="#863b9a" stroke="#863b9a"></path><path d="M704 600L766 528L712 475Z" fill="#0a274c" stroke="#0a274c"></path><path d="M712 475L833 408L691 367Z" fill="#6d3c91" stroke="#6d3c91"></path><path d="M763 332L900 197L786 173Z" fill="#03192b" stroke="#03192b"></path><path d="M300 90L172 135L285 171Z" fill="#6d3c91" stroke="#6d3c91"></path><path d="M203 0L172 135L300 90Z" fill="#863b9a" stroke="#863b9a"></path><path d="M71 514L174 502L174 436Z" fill="#863b9a" stroke="#863b9a"></path><path d="M174 436L174 502L287 475Z" fill="#03203c" stroke="#03203c"></path><path d="M423 0L304 0L405 98Z" fill="#6d3c91" stroke="#6d3c91"></path><path d="M565 600L704 600L566 514Z" fill="#00101c" stroke="#00101c"></path><path d="M766 528L833 408L712 475Z" fill="#553a87" stroke="#553a87"></path><path d="M772 0L685 0L706 78Z" fill="#03192b" stroke="#03192b"></path><path d="M706 78L685 0L573 92Z" fill="#0a274c" stroke="#0a274c"></path><path d="M172 135L107 227L165 207Z" fill="#192e5c" stroke="#192e5c"></path><path d="M165 207L107 227L167 321Z" fill="#863b9a" stroke="#863b9a"></path><path d="M167 321L88 336L174 436Z" fill="#03192b" stroke="#03192b"></path><path d="M107 227L88 336L167 321Z" fill="#863b9a" stroke="#863b9a"></path><path d="M174 502L189 600L287 475Z" fill="#3f377a" stroke="#3f377a"></path><path d="M101 600L189 600L174 502Z" fill="#192e5c" stroke="#192e5c"></path><path d="M900 197L838 103L786 173Z" fill="#192e5c" stroke="#192e5c"></path><path d="M786 173L838 103L706 78Z" fill="#2b336c" stroke="#2b336c"></path><path d="M900 362L900 335L833 408Z" fill="#863b9a" stroke="#863b9a"></path><path d="M833 408L900 335L763 332Z" fill="#192e5c" stroke="#192e5c"></path><path d="M0 320L65 364L88 336Z" fill="#6d3c91" stroke="#6d3c91"></path><path d="M88 336L65 364L174 436Z" fill="#863b9a" stroke="#863b9a"></path><path d="M304 0L203 0L300 90Z" fill="#553a87" stroke="#553a87"></path><path d="M172 135L78 61L107 227Z" fill="#192e5c" stroke="#192e5c"></path><path d="M900 532L900 362L833 408Z" fill="#03192b" stroke="#03192b"></path><path d="M704 600L798 600L766 528Z" fill="#03203c" stroke="#03203c"></path><path d="M766 528L900 532L833 408Z" fill="#553a87" stroke="#553a87"></path><path d="M838 103L772 0L706 78Z" fill="#03203c" stroke="#03203c"></path><path d="M900 335L900 197L763 332Z" fill="#0a274c" stroke="#0a274c"></path><path d="M838 103L900 0L772 0Z" fill="#863b9a" stroke="#863b9a"></path><path d="M65 364L71 514L174 436Z" fill="#863b9a" stroke="#863b9a"></path><path d="M798 600L900 532L766 528Z" fill="#192e5c" stroke="#192e5c"></path><path d="M71 514L101 600L174 502Z" fill="#863b9a" stroke="#863b9a"></path><path d="M900 197L900 84L838 103Z" fill="#3f377a" stroke="#3f377a"></path><path d="M203 0L78 61L172 135Z" fill="#0a274c" stroke="#0a274c"></path><path d="M107 227L0 320L88 336Z" fill="#2b336c" stroke="#2b336c"></path><path d="M65 364L0 418L71 514Z" fill="#2b336c" stroke="#2b336c"></path><path d="M71 514L0 600L101 600Z" fill="#553a87" stroke="#553a87"></path><path d="M0 186L0 320L107 227Z" fill="#00101c" stroke="#00101c"></path><path d="M0 320L0 418L65 364Z" fill="#03203c" stroke="#03203c"></path><path d="M78 61L0 186L107 227Z" fill="#192e5c" stroke="#192e5c"></path><path d="M203 0L88 0L78 61Z" fill="#2b336c" stroke="#2b336c"></path><path d="M78 61L0 93L0 186Z" fill="#03192b" stroke="#03192b"></path><path d="M798 600L900 600L900 532Z" fill="#553a87" stroke="#553a87"></path><path d="M900 84L900 0L838 103Z" fill="#00101c" stroke="#00101c"></path><path d="M0 0L0 93L78 61Z" fill="#863b9a" stroke="#863b9a"></path><path d="M0 418L0 537L71 514Z" fill="#192e5c" stroke="#192e5c"></path><path d="M0 537L0 600L71 514Z" fill="#03203c" stroke="#03203c"></path><path d="M88 0L0 0L78 61Z" fill="#03192b" stroke="#03192b"></path></g></svg>