<svg id="visual" viewBox="0 0 900 600" width="900" height="600" xmlns="http://www.w3.org/2000/svg" xmlns:xlink="http://www.w3.org/1999/xlink" version="1.1"><rect x="0" y="0" width="900" height="600" fill="#001220"></rect><defs><linearGradient id="grad1_0" x1="33.3%" y1="0%" x2="100%" y2="100%"><stop offset="20%" stop-color="#491f89" stop-opacity="1"></stop><stop offset="80%" stop-color="#491f89" stop-opacity="1"></stop></linearGradient></defs><defs><linearGradient id="grad1_1" x1="33.3%" y1="0%" x2="100%" y2="100%"><stop offset="20%" stop-color="#491f89" stop-opacity="1"></stop><stop offset="80%" stop-color="#2e247e" stop-opacity="1"></stop></linearGradient></defs><defs><linearGradient id="grad1_2" x1="33.3%" y1="0%" x2="100%" y2="100%"><stop offset="20%" stop-color="#112671" stop-opacity="1"></stop><stop offset="80%" stop-color="#2e247e" stop-opacity="1"></stop></linearGradient></defs><defs><linearGradient id="grad1_3" x1="33.3%" y1="0%" x2="100%" y2="100%"><stop offset="20%" stop-color="#112671" stop-opacity="1"></stop><stop offset="80%" stop-color="#002563" stop-opacity="1"></stop></linearGradient></defs><defs><linearGradient id="grad1_4" x1="33.3%" y1="0%" x2="100%" y2="100%"><stop offset="20%" stop-color="#002252" stop-opacity="1"></stop><stop offset="80%" stop-color="#002563" stop-opacity="1"></stop></linearGradient></defs><defs><linearGradient id="grad1_5" x1="33.3%" y1="0%" x2="100%" y2="100%"><stop offset="20%" stop-color="#002252" stop-opacity="1"></stop><stop offset="80%" stop-color="#001d41" stop-opacity="1"></stop></linearGradient></defs><defs><linearGradient id="grad1_6" x1="33.3%" y1="0%" x2="100%" y2="100%"><stop offset="20%" stop-color="#001830" stop-opacity="1"></stop><stop offset="80%" stop-color="#001d41" stop-opacity="1"></stop></linearGradient></defs><defs><linearGradient id="grad1_7" x1="33.3%" y1="0%" x2="100%" y2="100%"><stop offset="20%" stop-color="#001830" stop-opacity="1"></stop><stop offset="80%" stop-color="#001220" stop-opacity="1"></stop></linearGradient></defs><defs><linearGradient id="grad2_0" x1="0%" y1="0%" x2="66.7%" y2="100%"><stop offset="20%" stop-color="#491f89" stop-opacity="1"></stop><stop offset="80%" stop-color="#491f89" stop-opacity="1"></stop></linearGradient></defs><defs><linearGradient id="grad2_1" x1="0%" y1="0%" x2="66.7%" y2="100%"><stop offset="20%" stop-color="#2e247e" stop-opacity="1"></stop><stop offset="80%" stop-color="#491f89" stop-opacity="1"></stop></linearGradient></defs><defs><linearGradient id="grad2_2" x1="0%" y1="0%" x2="66.7%" y2="100%"><stop offset="20%" stop-color="#2e247e" stop-opacity="1"></stop><stop offset="80%" stop-color="#112671" stop-opacity="1"></stop></linearGradient></defs><defs><linearGradient id="grad2_3" x1="0%" y1="0%" x2="66.7%" y2="100%"><stop offset="20%" stop-color="#002563" stop-opacity="1"></stop><stop offset="80%" stop-color="#112671" stop-opacity="1"></stop></linearGradient></defs><defs><linearGradient id="grad2_4" x1="0%" y1="0%" x2="66.7%" y2="100%"><stop offset="20%" stop-color="#002563" stop-opacity="1"></stop><stop offset="80%" stop-color="#002252" stop-opacity="1"></stop></linearGradient></defs><defs><linearGradient id="grad2_5" x1="0%" y1="0%" x2="66.7%" y2="100%"><stop offset="20%" stop-color="#001d41" stop-opacity="1"></stop><stop offset="80%" stop-color="#002252" stop-opacity="1"></stop></linearGradient></defs><defs><linearGradient id="grad2_6" x1="0%" y1="0%" x2="66.7%" y2="100%"><stop offset="20%" stop-color="#001d41" stop-opacity="1"></stop><stop offset="80%" stop-color="#001830" stop-opacity="1"></stop></linearGradient></defs><defs><linearGradient id="grad2_7" x1="0%" y1="0%" x2="66.7%" y2="100%"><stop offset="20%" stop-color="#001220" stop-opacity="1"></stop><stop offset="80%" stop-color="#001830" stop-opacity="1"></stop></linearGradient></defs><g transform="translate(900, 0)"><path d="M0 540.8C-74.9 537.5 -149.8 534.2 -207 499.7C-264.2 465.2 -303.6 399.5 -345.1 345.1C-386.5 290.6 -429.9 247.4 -462.9 191.7C-495.8 136.1 -518.3 68 -540.8 0L0 0Z" fill="#001528"></path><path d="M0 473.2C-65.5 470.3 -131.1 467.4 -181.1 437.2C-231.1 407 -265.7 349.6 -301.9 301.9C-338.2 254.3 -376.2 216.4 -405 167.8C-433.8 119.1 -453.5 59.5 -473.2 0L0 0Z" fill="#001b39"></path><path d="M0 405.6C-56.2 403.1 -112.3 400.6 -155.2 374.7C-198.1 348.9 -227.7 299.6 -258.8 258.8C-289.9 218 -322.4 185.5 -347.1 143.8C-371.9 102.1 -388.7 51 -405.6 0L0 0Z" fill="#00204a"></path><path d="M0 338C-46.8 335.9 -93.6 333.8 -129.4 312.3C-165.1 290.7 -189.8 249.7 -215.7 215.7C-241.6 181.6 -268.7 154.6 -289.3 119.8C-309.9 85 -324 42.5 -338 0L0 0Z" fill="#00235b"></path><path d="M0 270.4C-37.4 268.7 -74.9 267.1 -103.5 249.8C-132.1 232.6 -151.8 199.8 -172.5 172.5C-193.3 145.3 -215 123.7 -231.4 95.9C-247.9 68 -259.2 34 -270.4 0L0 0Z" fill="#00256a"></path><path d="M0 202.8C-28.1 201.6 -56.2 200.3 -77.6 187.4C-99.1 174.4 -113.9 149.8 -129.4 129.4C-144.9 109 -161.2 92.8 -173.6 71.9C-185.9 51 -194.4 25.5 -202.8 0L0 0Z" fill="#202678"></path><path d="M0 135.2C-18.7 134.4 -37.4 133.5 -51.7 124.9C-66 116.3 -75.9 99.9 -86.3 86.3C-96.6 72.7 -107.5 61.8 -115.7 47.9C-124 34 -129.6 17 -135.2 0L0 0Z" fill="#3c2284"></path><path d="M0 67.6C-9.4 67.2 -18.7 66.8 -25.9 62.5C-33 58.1 -38 49.9 -43.1 43.1C-48.3 36.3 -53.7 30.9 -57.9 24C-62 17 -64.8 8.5 -67.6 0L0 0Z" fill="#491f89"></path></g><g transform="translate(0, 600)"><path d="M0 -540.8C68.8 -532.2 137.5 -523.5 207 -499.7C276.4 -475.8 346.6 -436.8 378.3 -378.3C410 -319.8 403.4 -241.9 424.1 -175.7C444.7 -109.4 492.8 -54.7 540.8 0L0 0Z" fill="#001528"></path><path d="M0 -473.2C60.2 -465.7 120.3 -458.1 181.1 -437.2C241.9 -416.3 303.2 -382.2 331 -331C358.8 -279.9 353 -211.7 371.1 -153.7C389.2 -95.7 431.2 -47.8 473.2 0L0 0Z" fill="#001b39"></path><path d="M0 -405.6C51.6 -399.1 103.1 -392.6 155.2 -374.7C207.3 -356.9 259.9 -327.6 283.7 -283.7C307.5 -239.9 302.5 -181.5 318 -131.7C333.6 -82 369.6 -41 405.6 0L0 0Z" fill="#00204a"></path><path d="M0 -338C43 -332.6 85.9 -327.2 129.4 -312.3C172.8 -297.4 216.6 -273 236.4 -236.4C256.3 -199.9 252.1 -151.2 265 -109.8C278 -68.4 308 -34.2 338 0L0 0Z" fill="#00235b"></path><path d="M0 -270.4C34.4 -266.1 68.8 -261.8 103.5 -249.8C138.2 -237.9 173.3 -218.4 189.2 -189.2C205 -159.9 201.7 -121 212 -87.8C222.4 -54.7 246.4 -27.3 270.4 0L0 0Z" fill="#00256a"></path><path d="M0 -202.8C25.8 -199.6 51.6 -196.3 77.6 -187.4C103.7 -178.4 130 -163.8 141.9 -141.9C153.8 -119.9 151.3 -90.7 159 -65.9C166.8 -41 184.8 -20.5 202.8 0L0 0Z" fill="#202678"></path><path d="M0 -135.2C17.2 -133 34.4 -130.9 51.7 -124.9C69.1 -119 86.6 -109.2 94.6 -94.6C102.5 -80 100.8 -60.5 106 -43.9C111.2 -27.3 123.2 -13.7 135.2 0L0 0Z" fill="#3c2284"></path><path d="M0 -67.6C8.6 -66.5 17.2 -65.4 25.9 -62.5C34.6 -59.5 43.3 -54.6 47.3 -47.3C51.3 -40 50.4 -30.2 53 -22C55.6 -13.7 61.6 -6.8 67.6 0L0 0Z" fill="#491f89"></path></g></svg>
