<svg id="visual" viewBox="0 0 900 600" width="900" height="600" xmlns="http://www.w3.org/2000/svg" xmlns:xlink="http://www.w3.org/1999/xlink" version="1.1"><path d="M0 157L13.7 168C27.3 179 54.7 201 82 201C109.3 201 136.7 179 163.8 164C191 149 218 141 245.2 139C272.3 137 299.7 141 327 135C354.3 129 381.7 113 409 120C436.3 127 463.7 157 491 162C518.3 167 545.7 147 573 157C600.3 167 627.7 207 654.8 228C682 249 709 251 736.2 238C763.3 225 790.7 197 818 168C845.3 139 872.7 109 886.3 94L900 79L900 0L886.3 0C872.7 0 845.3 0 818 0C790.7 0 763.3 0 736.2 0C709 0 682 0 654.8 0C627.7 0 600.3 0 573 0C545.7 0 518.3 0 491 0C463.7 0 436.3 0 409 0C381.7 0 354.3 0 327 0C299.7 0 272.3 0 245.2 0C218 0 191 0 163.8 0C136.7 0 109.3 0 82 0C54.7 0 27.3 0 13.7 0L0 0Z" fill="#04040d"></path><path d="M0 253L13.7 260C27.3 267 54.7 281 82 282C109.3 283 136.7 271 163.8 254C191 237 218 215 245.2 207C272.3 199 299.7 205 327 197C354.3 189 381.7 167 409 173C436.3 179 463.7 213 491 226C518.3 239 545.7 231 573 237C600.3 243 627.7 263 654.8 276C682 289 709 295 736.2 286C763.3 277 790.7 253 818 233C845.3 213 872.7 197 886.3 189L900 181L900 77L886.3 92C872.7 107 845.3 137 818 166C790.7 195 763.3 223 736.2 236C709 249 682 247 654.8 226C627.7 205 600.3 165 573 155C545.7 145 518.3 165 491 160C463.7 155 436.3 125 409 118C381.7 111 354.3 127 327 133C299.7 139 272.3 135 245.2 137C218 139 191 147 163.8 162C136.7 177 109.3 199 82 199C54.7 199 27.3 177 13.7 166L0 155Z" fill="#0f0d1e"></path><path d="M0 379L13.7 379C27.3 379 54.7 379 82 377C109.3 375 136.7 371 163.8 360C191 349 218 331 245.2 314C272.3 297 299.7 281 327 269C354.3 257 381.7 249 409 271C436.3 293 463.7 345 491 360C518.3 375 545.7 353 573 358C600.3 363 627.7 395 654.8 410C682 425 709 423 736.2 406C763.3 389 790.7 357 818 342C845.3 327 872.7 329 886.3 330L900 331L900 179L886.3 187C872.7 195 845.3 211 818 231C790.7 251 763.3 275 736.2 284C709 293 682 287 654.8 274C627.7 261 600.3 241 573 235C545.7 229 518.3 237 491 224C463.7 211 436.3 177 409 171C381.7 165 354.3 187 327 195C299.7 203 272.3 197 245.2 205C218 213 191 235 163.8 252C136.7 269 109.3 281 82 280C54.7 279 27.3 265 13.7 258L0 251Z" fill="#1a1c46"></path><path d="M0 481L13.7 479C27.3 477 54.7 473 82 469C109.3 465 136.7 461 163.8 452C191 443 218 429 245.2 418C272.3 407 299.7 399 327 389C354.3 379 381.7 367 409 385C436.3 403 463.7 451 491 457C518.3 463 545.7 427 573 424C600.3 421 627.7 451 654.8 465C682 479 709 477 736.2 472C763.3 467 790.7 459 818 447C845.3 435 872.7 419 886.3 411L900 403L900 329L886.3 328C872.7 327 845.3 325 818 340C790.7 355 763.3 387 736.2 404C709 421 682 423 654.8 408C627.7 393 600.3 361 573 356C545.7 351 518.3 373 491 358C463.7 343 436.3 291 409 269C381.7 247 354.3 255 327 267C299.7 279 272.3 295 245.2 312C218 329 191 347 163.8 358C136.7 369 109.3 373 82 375C54.7 377 27.3 377 13.7 377L0 377Z" fill="#0f0d1e"></path><path d="M0 601L13.7 601C27.3 601 54.7 601 82 601C109.3 601 136.7 601 163.8 601C191 601 218 601 245.2 601C272.3 601 299.7 601 327 601C354.3 601 381.7 601 409 601C436.3 601 463.7 601 491 601C518.3 601 545.7 601 573 601C600.3 601 627.7 601 654.8 601C682 601 709 601 736.2 601C763.3 601 790.7 601 818 601C845.3 601 872.7 601 886.3 601L900 601L900 401L886.3 409C872.7 417 845.3 433 818 445C790.7 457 763.3 465 736.2 470C709 475 682 477 654.8 463C627.7 449 600.3 419 573 422C545.7 425 518.3 461 491 455C463.7 449 436.3 401 409 383C381.7 365 354.3 377 327 387C299.7 397 272.3 405 245.2 416C218 427 191 441 163.8 450C136.7 459 109.3 463 82 467C54.7 471 27.3 475 13.7 477L0 479Z" fill="#04040d"></path></svg>