<svg id="visual" viewBox="0 0 500 55" width="500" height="55" xmlns="http://www.w3.org/2000/svg" xmlns:xlink="http://www.w3.org/1999/xlink" version="1.1"><rect x="0" y="0" width="500" height="55" fill="#202020"></rect><path d="M0 29L9.3 27.3C18.7 25.7 37.3 22.3 55.8 20.2C74.3 18 92.7 17 111.2 17.5C129.7 18 148.3 20 166.8 22.8C185.3 25.7 203.7 29.3 222.2 30.8C240.7 32.3 259.3 31.7 277.8 31.2C296.3 30.7 314.7 30.3 333.2 29.5C351.7 28.7 370.3 27.3 388.8 24.8C407.3 22.3 425.7 18.7 444.2 18C462.7 17.3 481.3 19.7 490.7 20.8L500 22L500 56L490.7 56C481.3 56 462.7 56 444.2 56C425.7 56 407.3 56 388.8 56C370.3 56 351.7 56 333.2 56C314.7 56 296.3 56 277.8 56C259.3 56 240.7 56 222.2 56C203.7 56 185.3 56 166.8 56C148.3 56 129.7 56 111.2 56C92.7 56 74.3 56 55.8 56C37.3 56 18.7 56 9.3 56L0 56Z" fill="#131313" stroke-linecap="round" stroke-linejoin="miter"></path></svg>